<?xml version="1.0" encoding="utf-8"?>

<svg viewBox="311.276 95.609 112.479 115.789" width="112.479" height="115.789" xmlns="http://www.w3.org/2000/svg" xmlns:bx="https://boxy-svg.com">
  <rect x="311.276" y="95.609" width="112.479" height="115.789" style="fill: rgb(88, 4, 168);" rx="21.647" ry="21.647"></rect>
  <path style="fill: rgb(216, 216, 216); stroke-width: 4px; stroke: rgb(255, 255, 255); fill-opacity: 0; stroke-linecap: round;" d="M 367.452 183.044 C 387.166 183.044 399.487 161.156 389.631 143.645 C 383.747 133.191 371.672 128.196 360.365 131.538" transform="matrix(0.933939, 0.357431, -0.357431, 0.933939, 80.92392, -124.299171)"></path>
  <path style="stroke: rgb(255, 255, 255); fill-opacity: 0; stroke-width: 4px; stroke-linecap: round;" d="M 367.851 166.607 C 376.844 166.607 382.464 156.872 377.968 149.085 C 373.472 141.297 362.232 141.297 357.735 149.085 C 357.269 149.891 356.902 150.751 356.64 151.645"></path>
  <path style="fill: rgb(216, 216, 216); stroke: rgb(255, 255, 255); fill-opacity: 0; stroke-width: 4px; stroke-linecap: round;" d="M 364.642 161.659 C 368.902 161.659 371.565 157.047 369.435 153.357 C 369.364 153.235 369.288 153.114 369.208 152.998" transform="matrix(0.638899, 0.769291, -0.769291, 0.638899, 253.704712, -225.836151)"></path>
  <path style="fill: rgb(216, 216, 216); stroke: rgb(255, 255, 255); fill-opacity: 0; stroke-width: 4px; stroke-linecap: round;" d="M 348.987 168.01 C 363.455 168.01 372.498 152.348 365.264 139.819 C 362.764 135.486 358.638 132.33 353.803 131.049" transform="matrix(-0.931125, -0.3647, 0.3647, -0.931125, 637.578857, 419.468079)"></path>
  <path style="fill: rgb(216, 216, 216); stroke: rgb(255, 255, 255); fill-opacity: 0; stroke-width: 4px; stroke-linecap: round;" d="M 340.585 171.519 C 367.807 171.519 384.82 142.051 371.209 118.477 C 367.957 112.844 363.215 108.219 357.505 105.107" transform="matrix(-0.619934, -0.784654, 0.784654, -0.619934, 471.881958, 505.19339)"></path>
  <path style="fill: rgb(216, 216, 216); stroke: rgb(255, 255, 255); stroke-width: 4px; fill-opacity: 0; stroke-linecap: round;" d="M 367.666 195.2 C 401.507 195.2 422.657 159.129 405.737 130.271 C 388.817 101.412 346.515 101.412 329.595 130.271 C 324.829 138.399 322.876 147.833 324.028 157.15" transform="matrix(-0.04467, 0.999002, -0.999002, -0.04467, 535.88562, -208.632416)"></path>
</svg>