<?xml version="1.0" encoding="utf-8"?>
<svg viewBox="311.276 95.609 112.479 115.789" width="112.479" height="115.789" xmlns="http://www.w3.org/2000/svg" xmlns:bx="https://boxy-svg.com">
  <rect x="311.276" y="95.609" width="112.479" height="115.789" style="fill: rgb(88, 4, 168);" rx="21.647" ry="21.647"></rect>
  <path style="fill: rgb(216, 216, 216); stroke: rgb(255, 255, 255); fill-opacity: 0; stroke-linecap: round; stroke-width: 6px;" d="M 367.465 195.223 C 401.905 195.223 423.429 158.513 406.21 129.145 C 388.99 99.776 345.94 99.776 328.721 129.145 C 323.87 137.417 321.883 147.018 323.055 156.499" transform="matrix(-0.04467, 0.999002, -0.999002, -0.04467, 534.934448, -209.208328)"></path>
  <path style="fill: rgb(216, 216, 216); stroke: rgb(255, 255, 255); fill-opacity: 0; stroke-linecap: round; stroke-width: 6px;" d="M 366.295 183.676 C 386.925 183.676 399.818 160.771 389.504 142.446 C 383.347 131.507 370.711 126.28 358.878 129.777" transform="matrix(0.933939, 0.357431, -0.357431, 0.933939, 80.665642, -124.078415)"></path>
  <path style="stroke: rgb(255, 255, 255); fill-opacity: 0; stroke-linecap: round; stroke-width: 6px;" d="M 367.851 166.607 C 376.844 166.607 382.464 156.872 377.968 149.085 C 373.472 141.297 362.232 141.297 357.735 149.085 C 357.269 149.891 356.902 150.751 356.64 151.645"></path>
  <path style="fill: rgb(216, 216, 216); stroke: rgb(255, 255, 255); fill-opacity: 0; stroke-linecap: round; stroke-width: 6px;" d="M 365.423 159.995 C 368.915 159.995 371.098 156.214 369.352 153.19 C 369.294 153.09 369.231 152.991 369.166 152.896" transform="matrix(0.638899, 0.769291, -0.769291, 0.638899, 253.127045, -226.37149)"></path>
  <path style="fill: rgb(216, 216, 216); stroke: rgb(255, 255, 255); fill-opacity: 0; stroke-linecap: round; stroke-width: 6px;" d="M 348.422 168.741 C 363.218 168.741 372.466 152.724 365.068 139.911 C 362.512 135.48 358.292 132.252 353.347 130.942" transform="matrix(-0.931125, -0.3647, 0.3647, -0.931125, 636.786011, 419.942352)"></path>
  <path style="fill: rgb(216, 216, 216); stroke: rgb(255, 255, 255); fill-opacity: 0; stroke-linecap: round; stroke-width: 6px;" d="M 340.585 169.519 C 367.807 169.519 384.82 140.051 371.209 116.477 C 367.957 110.844 363.215 106.219 357.505 103.107" transform="matrix(-0.619934, -0.784654, 0.784654, -0.619934, 473.451263, 501.953522)"></path>
</svg>