<svg width="261" height="262" viewBox="0 0 261 262" fill="none" xmlns="http://www.w3.org/2000/svg">
    <path d="M0.000488281 20.001C0.000488281 8.95528 8.95479 0.000976562 20.0005 0.000976562H236C247.046 0.000976562 256 8.95528 256 20.001V236.001C256 247.047 247.046 256.001 236 256.001H20.0005C8.95479 256.001 0.000488281 247.047 0.000488281 236.001V20.001Z" fill="url(#paint0_linear_101_100)"/>
    <g filter="url(#filter0_dd_101_100)">
    <path fill-rule="evenodd" clip-rule="evenodd" d="M208.081 116.62C209.223 117.164 209.981 117.969 210.454 118.649L201.556 124.844C201.874 125.301 202.46 125.952 203.413 126.406C204.413 126.883 205.428 126.959 206.262 126.831C207.022 126.714 207.551 126.444 207.799 126.3C208.059 126.149 208.206 126.021 208.228 126.002C208.235 125.996 208.234 125.997 208.227 126.004C208.201 126.031 208.08 126.153 207.843 126.438C207.564 126.775 207.223 127.216 206.793 127.79C206.523 128.15 206.227 128.552 205.906 128.988C204.251 131.233 201.932 134.381 199.085 137.448C192.231 144.831 181.187 152.967 165.46 149.69C153.431 147.184 145.51 146.969 139.901 147.772C134.435 148.554 130.864 150.341 127.49 152.455C126.743 152.922 125.947 153.452 125.101 154.014C122.312 155.868 118.983 158.081 115.122 159.626C109.734 161.781 103.25 162.79 94.1666 161.834C76.2698 159.95 67.6659 152.991 64.7796 144.457C63.4441 140.509 63.5683 136.807 63.9703 134.196C64.1737 132.874 64.4568 131.774 64.6977 130.983C64.8188 130.585 64.9308 130.26 65.0196 130.017C65.0641 129.896 65.1029 129.794 65.1344 129.715C65.1501 129.675 65.1641 129.64 65.176 129.611C65.1819 129.596 65.1874 129.583 65.1923 129.571L65.1992 129.554L65.2024 129.547C65.2039 129.543 65.2054 129.54 70.203 131.64L65.2054 129.54C66.3657 126.779 69.5438 125.483 72.3039 126.643C75.0485 127.797 76.3462 130.946 75.2199 133.695C75.2168 133.703 75.2106 133.719 75.2018 133.743C75.1759 133.814 75.1285 133.949 75.0703 134.14C74.9528 134.526 74.7986 135.117 74.6865 135.845C74.4574 137.333 74.4376 139.171 75.0504 140.983C76.0606 143.97 79.7223 149.411 95.3016 151.051C102.957 151.857 107.623 150.948 111.095 149.559C113.828 148.465 115.854 147.121 118.381 145.445C119.392 144.774 120.484 144.049 121.733 143.267C125.934 140.634 130.946 138.1 138.365 137.039C145.643 135.997 154.911 136.417 167.671 139.076C177.966 141.22 185.4 136.253 191.138 130.071C193.527 127.498 195.427 124.924 197.086 122.677C197.439 122.199 197.781 121.736 198.114 121.291C198.93 120.201 200.002 118.79 201.1 117.832C201.573 117.42 202.807 116.392 204.615 116.114C205.672 115.951 206.892 116.053 208.081 116.62Z" fill="white"/>
    <path fill-rule="evenodd" clip-rule="evenodd" d="M166.43 157.258C169.424 157.258 171.851 159.685 171.851 162.679C171.851 166.683 170.909 170.277 168.963 173.335C167.028 176.377 164.315 178.55 161.299 180.076C155.457 183.033 147.977 183.814 140.757 183.805C133.4 183.796 125.523 182.949 118.5 182.108C117.314 181.966 116.159 181.825 115.037 181.689C109.328 180.993 104.481 180.401 100.812 180.296C97.9223 180.213 96.3476 180.858 95.486 181.47C94.6361 182.074 93.9756 183.002 93.5626 184.434C92.6592 187.564 93.2636 192.142 94.8583 195.966L84.8514 200.14C82.6964 194.973 81.3221 187.746 83.1451 181.428C84.0953 178.135 85.9743 174.928 89.207 172.631C92.428 170.343 96.479 169.324 101.124 169.458C105.346 169.579 110.825 170.249 116.508 170.944C117.597 171.077 118.693 171.212 119.789 171.343C126.805 172.183 134.117 172.954 140.77 172.962C147.561 172.971 152.914 172.167 156.403 170.402C158.052 169.567 159.128 168.594 159.816 167.514C160.494 166.449 161.009 164.943 161.009 162.679C161.009 159.685 163.436 157.258 166.43 157.258Z" fill="white"/>
    <path fill-rule="evenodd" clip-rule="evenodd" d="M87.0605 127.286C91.2572 126.51 96.1252 127.441 101.057 131.3L106.724 135.734L100.898 139.958C95.4918 143.878 90.5279 145.121 86.1646 144.194C81.9548 143.301 79.5151 140.634 78.5105 139.288C76.5994 136.727 77.0223 133.228 79.2939 131.16C80.441 130.115 83.125 128.013 87.0605 127.286Z" fill="white"/>
    <path fill-rule="evenodd" clip-rule="evenodd" d="M159.894 68.1144C156.452 64.1903 154.382 58.4931 155.349 50.8964L156.461 42.1657L164.546 45.6428C172.048 48.8692 176.462 53.3065 178.22 58.4707C179.916 63.4531 178.642 67.6856 177.856 69.584C176.362 73.1953 172.421 74.9412 168.826 73.8492C167.01 73.2978 163.121 71.7941 159.894 68.1144Z" fill="white"/>
    <path fill-rule="evenodd" clip-rule="evenodd" d="M203.062 72.2664C208.267 71.8858 214.061 73.6688 219.539 79.0198L225.835 85.1696L218.187 89.5246C211.09 93.5656 204.889 94.4121 199.709 92.7021C194.711 91.0522 192.102 87.4839 191.061 85.7126C189.081 82.3431 190.063 78.1466 193.102 75.9363C194.636 74.8202 198.18 72.6233 203.062 72.2664Z" fill="white"/>
    <path fill-rule="evenodd" clip-rule="evenodd" d="M149.018 58.1855H90.1438C57.2091 58.1855 30.5103 84.8844 30.5103 117.819V144.016C30.5103 166.336 42.774 185.783 60.9086 196.002V219.814C60.9086 225.971 68.4564 228.937 72.6485 224.427L91.9632 203.649H150.826C183.761 203.649 210.46 176.951 210.46 144.016V117.819C210.46 111.824 209.575 106.035 207.929 100.577C204.502 101.811 200.624 102.197 196.488 100.59C198.511 105.947 199.617 111.754 199.617 117.819V144.016C199.617 170.962 177.773 192.807 150.826 192.807H90.1438C88.3214 192.807 86.5439 193.554 85.2647 194.93L71.7511 209.468V193.577C71.7511 190.97 70.2663 188.66 68.0335 187.523C52.1873 179.452 41.3527 162.994 41.3527 144.016V117.819C41.3527 90.8726 63.1973 69.028 90.1438 69.028H150.826C151.041 69.028 151.255 69.0294 151.469 69.0322C149.269 66.1348 148.524 62.7455 149.018 58.1855Z" fill="white"/>
    <path fill-rule="evenodd" clip-rule="evenodd" d="M185.313 50.6523C187.08 45.741 191.063 41.1715 198.178 38.3392L206.355 35.0843L207.227 43.8421C208.037 51.9685 206.292 57.9785 202.625 62.0175C199.087 65.9144 194.766 66.8487 192.725 67.0804C188.841 67.5212 185.406 64.9188 184.62 61.2445C184.224 59.389 183.656 55.2579 185.313 50.6523Z" fill="white"/>
    <path fill-rule="evenodd" clip-rule="evenodd" d="M52.1785 133.564C49.7376 131.862 47.8142 128.99 47.3128 124.652L46.7365 119.667L51.6872 120.489C56.2809 121.251 59.3298 123.105 61.0081 125.724C62.6274 128.251 62.4995 130.768 62.3236 131.926C61.9889 134.13 60.0457 135.634 57.9063 135.52C56.826 135.463 54.4675 135.161 52.1785 133.564Z" fill="white"/>
    <path fill-rule="evenodd" clip-rule="evenodd" d="M108.729 82.0555C110.62 79.7577 113.636 78.0687 117.999 77.9138L123.015 77.7358L121.802 82.6055C120.677 87.1241 118.586 90.0159 115.842 91.4806C113.194 92.8937 110.695 92.5661 109.555 92.2986C107.385 91.7899 106.04 89.7331 106.324 87.6096C106.467 86.5373 106.955 84.2102 108.729 82.0555Z" fill="white"/>
    <path fill-rule="evenodd" clip-rule="evenodd" d="M127.602 86.4003C128.136 84.0733 129.695 81.7803 132.771 80.1051L136.307 78.1798L137.182 82.1092C137.994 85.7554 137.53 88.5802 136.085 90.615C134.692 92.5781 132.781 93.2387 131.867 93.4555C130.127 93.8681 128.425 92.8741 127.867 91.2484C127.585 90.4275 127.102 88.5824 127.602 86.4003Z" fill="white"/>
    <path fill-rule="evenodd" clip-rule="evenodd" d="M72.312 182.139C69.1185 181.016 66.1361 178.455 64.2657 173.854L62.1161 168.566L67.7918 167.959C73.0582 167.395 76.9642 168.499 79.601 170.858C82.145 173.134 82.7713 175.932 82.9312 177.255C83.2354 179.771 81.5639 182.011 79.1847 182.538C77.9832 182.804 75.3067 183.192 72.312 182.139Z" fill="white"/>
    <path fill-rule="evenodd" clip-rule="evenodd" d="M150.765 165.836C148.076 164.874 145.573 162.698 144.017 158.808L142.23 154.336L147.021 153.851C151.467 153.402 154.757 154.352 156.969 156.355C159.105 158.288 159.619 160.651 159.748 161.768C159.992 163.892 158.571 165.774 156.561 166.207C155.546 166.425 153.286 166.739 150.765 165.836Z" fill="white"/>
    <path fill-rule="evenodd" clip-rule="evenodd" d="M178.242 155.074C181.157 153.353 185.037 152.722 189.762 154.254L195.191 156.015L192.001 160.748C189.04 165.14 185.68 167.417 182.177 167.915C178.798 168.395 176.254 167.073 175.139 166.343C173.018 164.955 172.381 162.233 173.51 160.074C174.08 158.984 175.507 156.686 178.242 155.074Z" fill="white"/>
    <path fill-rule="evenodd" clip-rule="evenodd" d="M57.4777 99.792C52.5155 94.9633 48.5223 89.5394 46.8423 83.8438L57.2418 80.7764C58.1795 83.9555 60.7304 87.8285 65.0393 92.0214C69.28 96.148 74.8914 100.261 81.3575 103.978C94.3435 111.441 110.143 116.947 124.001 117.969C133.728 118.687 141.472 115.634 148.919 111.485C151.295 110.162 153.435 108.851 155.633 107.506C157.067 106.628 158.525 105.736 160.088 104.815C163.82 102.617 167.813 100.478 172.091 99.1044C181.389 96.1189 189.479 102.473 191.266 109.587C192.24 113.466 191.461 117.932 187.952 121.269C184.644 124.415 179.687 125.816 173.749 125.816C170.755 125.816 168.328 123.388 168.328 120.394C168.328 117.4 170.755 114.973 173.749 114.973C178.246 114.973 179.985 113.883 180.48 113.412C180.774 113.132 180.907 112.854 180.75 112.228C180.552 111.441 179.896 110.454 178.844 109.812C177.894 109.231 176.74 109 175.406 109.428C172.298 110.426 169.137 112.069 165.59 114.157C164.366 114.879 163.033 115.693 161.639 116.544C159.255 118.001 156.693 119.566 154.196 120.957C145.877 125.592 135.935 129.722 123.203 128.782C107.383 127.615 90.0204 121.462 75.9546 113.378C68.8949 109.32 62.5082 104.687 57.4777 99.792Z" fill="white"/>
    <path fill-rule="evenodd" clip-rule="evenodd" d="M185.689 68.9992C188.437 70.186 189.704 73.3764 188.517 76.1252L183.644 74.0212C188.517 76.1253 188.516 76.1267 188.516 76.1267L188.514 76.1324L188.509 76.1428L188.496 76.173C188.491 76.1851 188.485 76.1993 188.478 76.2155C188.47 76.2317 188.462 76.2499 188.453 76.2702C188.418 76.3509 188.367 76.463 188.304 76.6031C188.176 76.8831 187.994 77.2764 187.762 77.7553C187.299 78.7092 186.632 80.0229 185.805 81.4688C184.252 84.1857 181.771 88.0336 178.675 90.5299C152.124 111.939 127.743 110.561 106.407 104.194C85.4581 97.9417 69.4892 83.035 63.3662 69.5003L73.2448 65.0312C77.9518 75.4358 91.2754 88.3628 109.507 93.8039C127.351 99.1292 148.039 101.304 171.87 82.0894C173.287 80.9462 174.94 78.6274 176.392 76.0876C177.068 74.9051 177.621 73.8179 178.004 73.028C178.194 72.635 178.34 72.3206 178.436 72.111C178.483 72.0063 178.518 71.9281 178.54 71.8796C178.55 71.8554 178.558 71.8387 178.562 71.8299L178.563 71.8275L178.563 71.8262M178.563 71.8262L178.564 71.8243L178.565 71.8228C179.753 69.0772 182.941 67.8131 185.689 68.9992" fill="white"/>
    </g>
    <defs>
    <filter id="filter0_dd_101_100" x="0.510254" y="5.08398" width="260.325" height="256.52" filterUnits="userSpaceOnUse" color-interpolation-filters="sRGB">
    <feFlood flood-opacity="0" result="BackgroundImageFix"/>
    <feColorMatrix in="SourceAlpha" type="matrix" values="0 0 0 0 0 0 0 0 0 0 0 0 0 0 0 0 0 0 127 0" result="hardAlpha"/>
    <feOffset dx="10" dy="10"/>
    <feGaussianBlur stdDeviation="12.5"/>
    <feComposite in2="hardAlpha" operator="out"/>
    <feColorMatrix type="matrix" values="0 0 0 0 0.0663625 0 0 0 0 0.11078 0 0 0 0 0.268262 0 0 0 0.4 0"/>
    <feBlend mode="normal" in2="BackgroundImageFix" result="effect1_dropShadow_101_100"/>
    <feColorMatrix in="SourceAlpha" type="matrix" values="0 0 0 0 0 0 0 0 0 0 0 0 0 0 0 0 0 0 127 0" result="hardAlpha"/>
    <feOffset dx="-10" dy="-10"/>
    <feGaussianBlur stdDeviation="10"/>
    <feComposite in2="hardAlpha" operator="out"/>
    <feColorMatrix type="matrix" values="0 0 0 0 0.2 0 0 0 0 1 0 0 0 0 0 0 0 0 0.5 0"/>
    <feBlend mode="normal" in2="effect1_dropShadow_101_100" result="effect2_dropShadow_101_100"/>
    <feBlend mode="normal" in="SourceGraphic" in2="effect2_dropShadow_101_100" result="shape"/>
    </filter>
    <linearGradient id="paint0_linear_101_100" x1="-36.9995" y1="51.001" x2="306.5" y2="237.001" gradientUnits="userSpaceOnUse">
    <stop stop-color="#10BC4B"/>
    <stop offset="1" stop-color="#2C312B"/>
    </linearGradient>
    </defs>
    </svg>