<svg xmlns="http://www.w3.org/2000/svg" width="66.141" height="64.513" viewBox="0 0 66.141 64.513">
  <defs>
    <style>
      .cls-1 {
        fill: #60f;
        fill-rule: evenodd;
      }
    </style>
  </defs>
  <path id="github" class="cls-1" d="M33.069,7.876A33.072,33.072,0,0,0,22.614,72.323c1.654.306,2.262-.719,2.262-1.593,0-.789-.033-3.393-.046-6.154-9.2,2-11.14-3.9-11.14-3.9-1.5-3.823-3.672-4.84-3.672-4.84-3-2.054.228-2.009.228-2.009,3.32.232,5.068,3.406,5.068,3.406,2.951,5.056,7.739,3.592,9.624,2.749a7.047,7.047,0,0,1,2.1-4.423c-7.346-.834-15.067-3.67-15.067-16.343a12.806,12.806,0,0,1,3.407-8.875,11.874,11.874,0,0,1,.319-8.751s2.777-.89,9.1,3.39a31.374,31.374,0,0,1,16.558,0c6.312-4.277,9.086-3.39,9.086-3.39a11.875,11.875,0,0,1,.326,8.751,12.769,12.769,0,0,1,3.4,8.875c0,12.7-7.739,15.494-15.1,16.313,1.186,1.025,2.246,3.038,2.246,6.121,0,4.422-.038,7.986-.038,9.074,0,.88.6,1.909,2.273,1.587A33.073,33.073,0,0,0,33.071,7.865l0,.011Z" transform="translate(0 -7.865)"/>
</svg>
